<?xml version="1.0" ?><svg viewBox="0 0 64 64" xmlns="http://www.w3.org/2000/svg"><defs><style>.cls-1{fill:#ffab00;}.cls-2{fill:#efc589;}.cls-3{fill:#3e2c27;}.cls-4{fill:#bd7f00;}.cls-5{fill:#2d2d2d;}</style></defs><title/><g id="fox"><path class="cls-1" d="M57,35,45.78,28.69A7.23,7.23,0,0,0,35,35V52.48A1.43,1.43,0,0,0,33.61,51H30.39A1.43,1.43,0,0,0,29,52.48V35a7.23,7.23,0,0,0-10.78-6.31L7,35l8-12A20.2,20.2,0,0,1,32,14a20.2,20.2,0,0,1,17,9Z"/><path class="cls-2" d="M57,35l-4,2.08a35.57,35.57,0,0,0-9.25,6.33,18.37,18.37,0,0,0-5,9.57,5,5,0,0,1-4.9,4H30.1a5,5,0,0,1-4.9-4C23.57,44.85,18.35,40.9,11,37.08L7,35l11.22-6.31A7.23,7.23,0,0,1,29,35V52.48A1.43,1.43,0,0,1,30.39,51h3.22A1.43,1.43,0,0,1,35,52.48V35a7.23,7.23,0,0,1,10.78-6.31Z"/><path class="cls-3" d="M35,52.48a1.49,1.49,0,0,1-.77,1.33L32,55l-2.23-1.19A1.49,1.49,0,0,1,29,52.48,1.43,1.43,0,0,1,30.39,51h3.22A1.43,1.43,0,0,1,35,52.48Z"/><path class="cls-4" d="M21.09,17.09A20.12,20.12,0,0,0,15,23l-.52.78A7.69,7.69,0,0,1,11,17.29V7Z"/><path class="cls-4" d="M53,7V17.29a7.69,7.69,0,0,1-3.5,6.46L49,23a20.12,20.12,0,0,0-6.07-5.88Z"/><circle class="cls-5" cx="23.5" cy="35.5" r="1.5"/><circle class="cls-5" cx="40.5" cy="35.5" r="1.5"/></g></svg>